<svg id="bold" enable-background="new 0 0 24 24" height="512" viewBox="0 0 24 24" width="512" xmlns="http://www.w3.org/2000/svg"><path d="m8 13c-1.103 0-2-.897-2-2s.897-2 2-2 2 .897 2 2-.897 2-2 2z"/><path d="m11.25 18h-6.5c-.414 0-.75-.336-.75-.75v-.5c0-1.517 1.233-2.75 2.75-2.75h2.5c1.517 0 2.75 1.233 2.75 2.75v.5c0 .414-.336.75-.75.75z"/><path d="m20.819 13.012-1.5-1.75c-.204-.237-.533-.322-.829-.215-.295.108-.49.389-.49.703v.75h-3c-.553 0-1 .448-1 1s.447 1 1 1h3v.75c0 .314.195.595.49.704.085.031.173.046.26.046.215 0 .424-.092.569-.262l1.5-1.75c.242-.281.242-.695 0-.976z"/><path d="m21 1h-18c-1.654 0-3 1.346-3 3v16c0 1.654 1.346 3 3 3h18c1.654 0 3-1.346 3-3v-16c0-1.654-1.346-3-3-3zm0 20h-18c-.551 0-1-.448-1-1v-14h20v14c0 .552-.449 1-1 1z"/></svg>