<svg width="293" height="291" viewBox="0 0 293 291" fill="none" xmlns="http://www.w3.org/2000/svg">
<g filter="url(#filter0_b)">
<path d="M86.2803 130.62L106.059 169.604L113.5 175.57L118.107 178.798L125.107 183.421L130.407 185.484L142.424 186.394L154.624 186.717L163.068 182.799L169.178 171.275L150.049 132.309L129.94 93.4648L110.155 54.6292L46.2234 52.936L66.4958 91.7846L86.2803 130.62Z" fill="#E8643A"/>
<path d="M86.2803 130.62L106.059 169.604L113.5 175.57L118.107 178.798L125.107 183.421L130.407 185.484L142.424 186.394L154.624 186.717L163.068 182.799L169.178 171.275L150.049 132.309L129.94 93.4648L110.155 54.6292L46.2234 52.936L66.4958 91.7846L86.2803 130.62Z" fill="url(#paint0_linear)"/>
<path d="M195.046 66.9365L173.888 28.495L166.238 22.7288L161.518 19.6239L154.357 15.1883L148.986 13.2662L136.943 12.6748H124.736L116.436 16.8147L110.74 28.495L131.246 66.9365L152.73 105.23L173.888 143.524H237.85L216.203 105.23L195.046 66.9365Z" fill="#E8643A"/>
<path d="M195.046 66.9365L173.888 28.495L166.238 22.7288L161.518 19.6239L154.357 15.1883L148.986 13.2662L136.943 12.6748H124.736L116.436 16.8147L110.74 28.495L131.246 66.9365L152.73 105.23L173.888 143.524H237.85L216.203 105.23L195.046 66.9365Z" fill="url(#paint1_linear)"/>
<path d="M235.643 96.0581L258 57.7987L194.591 56.1194L172.239 94.2312L149.568 132.187L126.577 169.986C121.351 176.748 116.725 176.148 106.091 169.444C124.855 206.877 166.145 210.477 190.469 171.826C214.792 133.176 212.977 133.866 212.977 133.866L235.643 96.0581Z" fill="#E8643A"/>
<path d="M46.9838 105.436L26 144.269H89.4394L110.423 105.584L131.732 67.0459L153.367 28.6556C158.349 21.7591 162.994 22.2364 173.863 28.6556C153.775 -8.26336 112.375 -10.7681 89.4394 28.508C66.5036 67.784 68.2929 67.0459 68.2929 67.0459L46.9838 105.436Z" fill="#E8643A"/>
</g>
<path d="M40.279 234.006V267H32.242V247.213L24.863 267H18.377L10.951 247.166V267H2.914V234.006H12.408L21.667 256.848L30.832 234.006H40.279ZM83.4235 234.006V267H75.3865V247.213L68.0075 267H61.5215L54.0955 247.166V267H46.0585V234.006H55.5525L64.8115 256.848L73.9765 234.006H83.4235ZM111.101 267.329C108.688 267.329 106.526 266.937 104.615 266.154C102.704 265.371 101.168 264.211 100.009 262.676C98.881 261.141 98.2857 259.292 98.223 257.13H106.777C106.902 258.352 107.325 259.292 108.046 259.95C108.767 260.577 109.707 260.89 110.866 260.89C112.057 260.89 112.997 260.624 113.686 260.091C114.375 259.527 114.72 258.759 114.72 257.788C114.72 256.973 114.438 256.3 113.874 255.767C113.341 255.234 112.668 254.796 111.853 254.451C111.07 254.106 109.942 253.715 108.469 253.276C106.338 252.618 104.599 251.96 103.252 251.302C101.905 250.644 100.745 249.673 99.774 248.388C98.8027 247.103 98.317 245.427 98.317 243.359C98.317 240.288 99.4294 237.891 101.654 236.168C103.879 234.413 106.777 233.536 110.349 233.536C113.984 233.536 116.913 234.413 119.138 236.168C121.363 237.891 122.553 240.304 122.71 243.406H114.015C113.952 242.341 113.561 241.51 112.84 240.915C112.119 240.288 111.195 239.975 110.067 239.975C109.096 239.975 108.312 240.241 107.717 240.774C107.122 241.275 106.824 242.012 106.824 242.983C106.824 244.048 107.325 244.879 108.328 245.474C109.331 246.069 110.897 246.712 113.028 247.401C115.159 248.122 116.882 248.811 118.198 249.469C119.545 250.127 120.705 251.083 121.676 252.336C122.647 253.589 123.133 255.203 123.133 257.177C123.133 259.057 122.647 260.765 121.676 262.3C120.736 263.835 119.357 265.057 117.54 265.966C115.723 266.875 113.576 267.329 111.101 267.329ZM154.869 240.774L138.419 279.455H129.771L135.787 266.107L125.118 240.774H134.095L140.158 257.177L146.174 240.774H154.869ZM168.444 267.376C166.157 267.376 164.12 266.984 162.334 266.201C160.548 265.418 159.138 264.352 158.104 263.005C157.07 261.626 156.491 260.091 156.365 258.399H164.308C164.402 259.308 164.825 260.044 165.577 260.608C166.329 261.172 167.254 261.454 168.35 261.454C169.353 261.454 170.121 261.266 170.653 260.89C171.217 260.483 171.499 259.966 171.499 259.339C171.499 258.587 171.108 258.039 170.324 257.694C169.541 257.318 168.272 256.911 166.517 256.472C164.637 256.033 163.071 255.579 161.817 255.109C160.564 254.608 159.483 253.84 158.574 252.806C157.666 251.741 157.211 250.315 157.211 248.529C157.211 247.025 157.619 245.662 158.433 244.44C159.279 243.187 160.501 242.2 162.099 241.479C163.729 240.758 165.656 240.398 167.88 240.398C171.17 240.398 173.755 241.213 175.635 242.842C177.547 244.471 178.643 246.633 178.925 249.328H171.499C171.374 248.419 170.967 247.699 170.277 247.166C169.619 246.633 168.742 246.367 167.645 246.367C166.705 246.367 165.985 246.555 165.483 246.931C164.982 247.276 164.731 247.761 164.731 248.388C164.731 249.14 165.123 249.704 165.906 250.08C166.721 250.456 167.974 250.832 169.666 251.208C171.609 251.709 173.191 252.211 174.413 252.712C175.635 253.182 176.701 253.965 177.609 255.062C178.549 256.127 179.035 257.569 179.066 259.386C179.066 260.921 178.628 262.3 177.75 263.522C176.904 264.713 175.667 265.653 174.037 266.342C172.439 267.031 170.575 267.376 168.444 267.376ZM198.6 260.185V267H194.511C191.597 267 189.326 266.295 187.696 264.885C186.067 263.444 185.252 261.109 185.252 257.882V247.448H182.056V240.774H185.252V234.382H193.289V240.774H198.553V247.448H193.289V257.976C193.289 258.759 193.477 259.323 193.853 259.668C194.229 260.013 194.856 260.185 195.733 260.185H198.6ZM227.799 253.464C227.799 254.216 227.752 254.999 227.658 255.814H209.469C209.594 257.443 210.111 258.697 211.02 259.574C211.96 260.42 213.104 260.843 214.451 260.843C216.456 260.843 217.851 259.997 218.634 258.305H227.188C226.749 260.028 225.95 261.579 224.791 262.958C223.663 264.337 222.237 265.418 220.514 266.201C218.791 266.984 216.864 267.376 214.733 267.376C212.164 267.376 209.876 266.828 207.871 265.731C205.866 264.634 204.299 263.068 203.171 261.031C202.043 258.994 201.479 256.613 201.479 253.887C201.479 251.161 202.027 248.78 203.124 246.743C204.252 244.706 205.819 243.14 207.824 242.043C209.829 240.946 212.132 240.398 214.733 240.398C217.271 240.398 219.527 240.931 221.501 241.996C223.475 243.061 225.01 244.581 226.107 246.555C227.235 248.529 227.799 250.832 227.799 253.464ZM219.574 251.349C219.574 249.97 219.104 248.874 218.164 248.059C217.224 247.244 216.049 246.837 214.639 246.837C213.292 246.837 212.148 247.229 211.208 248.012C210.299 248.795 209.735 249.908 209.516 251.349H219.574ZM265.503 240.492C268.762 240.492 271.347 241.479 273.258 243.453C275.201 245.427 276.172 248.169 276.172 251.678V267H268.182V252.759C268.182 251.067 267.728 249.767 266.819 248.858C265.942 247.918 264.72 247.448 263.153 247.448C261.586 247.448 260.349 247.918 259.44 248.858C258.563 249.767 258.124 251.067 258.124 252.759V267H250.134V252.759C250.134 251.067 249.68 249.767 248.771 248.858C247.894 247.918 246.672 247.448 245.105 247.448C243.538 247.448 242.301 247.918 241.392 248.858C240.515 249.767 240.076 251.067 240.076 252.759V267H232.039V240.774H240.076V244.064C240.891 242.967 241.956 242.106 243.272 241.479C244.588 240.821 246.076 240.492 247.737 240.492C249.711 240.492 251.466 240.915 253.001 241.761C254.568 242.607 255.79 243.813 256.667 245.38C257.576 243.939 258.813 242.764 260.38 241.855C261.947 240.946 263.654 240.492 265.503 240.492Z" fill="#FFEDED"/>
<defs>
<filter id="filter0_b" x="22" y="-4" width="240" height="207.21" filterUnits="userSpaceOnUse" color-interpolation-filters="sRGB">
<feFlood flood-opacity="0" result="BackgroundImageFix"/>
<feGaussianBlur in="BackgroundImage" stdDeviation="2"/>
<feComposite in2="SourceAlpha" operator="in" result="effect1_backgroundBlur"/>
<feBlend mode="normal" in="SourceGraphic" in2="effect1_backgroundBlur" result="shape"/>
</filter>
<linearGradient id="paint0_linear" x1="66.0651" y1="49.0239" x2="147.763" y2="212.747" gradientUnits="userSpaceOnUse">
<stop offset="0.0497586" stop-color="#413D4F"/>
<stop offset="0.226956" stop-color="#413D4F"/>
<stop offset="0.459517" stop-color="#5A5666" stop-opacity="0.79"/>
<stop offset="0.947917" stop-color="white" stop-opacity="0"/>
</linearGradient>
<linearGradient id="paint1_linear" x1="218.156" y1="147.959" x2="131.52" y2="-13.9801" gradientUnits="userSpaceOnUse">
<stop offset="0.0497586" stop-color="#413D4F"/>
<stop offset="0.226956" stop-color="#413D4F"/>
<stop offset="0.459517" stop-color="#5A5666" stop-opacity="0.79"/>
<stop offset="0.947917" stop-color="white" stop-opacity="0"/>
</linearGradient>
</defs>
</svg>
